<svg width="241" height="241" viewBox="0 0 241 241" fill="none" xmlns="http://www.w3.org/2000/svg">
<g clip-path="url(#clip0_81_4)">
<circle cx="120.5" cy="120.5" r="120.5" fill="url(#paint0_linear_81_4)"/>
<path d="M195.273 60.8359C192.669 60.9661 190.456 61.2917 188.633 61.8125C186.94 62.2031 185.378 63.1797 183.945 64.7422C182.513 66.1745 181.081 68.2578 179.648 70.9922C178.346 73.5964 176.719 77.112 174.766 81.5391L125.352 206.539H122.031L67.1484 84.0781C64.6745 79 62.526 74.9635 60.7031 71.9688C59.0104 68.974 57.3177 66.6953 55.625 65.1328C54.0625 63.4401 52.3047 62.3333 50.3516 61.8125C48.5286 61.1615 46.25 60.8359 43.5156 60.8359V56.3438H103.086V60.8359L96.4453 61.0312C89.5443 61.4219 86.0938 63.7656 86.0938 68.0625C86.0938 68.974 86.224 70.0156 86.4844 71.1875C86.7448 72.2292 87.2005 73.6615 87.8516 75.4844C88.5026 77.3073 89.4141 79.5859 90.5859 82.3203C91.7578 85.0547 93.3203 88.5052 95.2734 92.6719L128.867 168.062L161.484 86.4219C163.047 82.9062 164.154 79.7161 164.805 76.8516C165.586 73.987 165.977 71.6432 165.977 69.8203C165.977 68.7786 165.651 67.6719 165 66.5C164.349 65.1979 163.503 64.2214 162.461 63.5703C161.029 62.5286 159.466 61.8776 157.773 61.6172C156.211 61.2266 153.542 60.9661 149.766 60.8359V56.3438H195.273V60.8359Z" fill="url(#paint1_linear_81_4)"/>
</g>
<defs>
<linearGradient id="paint0_linear_81_4" x1="120.5" y1="0" x2="222" y2="247.5" gradientUnits="userSpaceOnUse">
<stop/>
<stop offset="1" stop-color="#1C1C1C"/>
</linearGradient>
<linearGradient id="paint1_linear_81_4" x1="120.5" y1="-40" x2="120.5" y2="280" gradientUnits="userSpaceOnUse">
<stop stop-color="#FF1368"/>
<stop offset="1" stop-color="#670025"/>
</linearGradient>
<clipPath id="clip0_81_4">
<rect width="241" height="241" fill="white"/>
</clipPath>
</defs>
</svg>
